{
  "accessors": [
    {
      "bufferView": 2,
      "componentType": 5126,
      "count": 11661,
      "max": [
        18.638277053833008,
        -105.978271484375,
        339.6264953613281
      ],
      "min": [
        -75.04914855957031,
        -185.1981201171875,
        238.83424377441406
      ],
      "type": "VEC3"
    },
    {
      "bufferView": 2,
      "byteOffset": 139932,
      "componentType": 5126,
      "count": 11661,
      "max": [
        0.9999683499336243,
        0.999862015247345,
        0.9999327659606934
      ],
      "min": [
        -0.9999247789382935,
        -0.9995373487472534,
        -0.9999673366546631
      ],
      "type": "VEC3"
    },
    {
      "bufferView": 3,
      "componentType": 5126,
      "count": 11661,
      "max": [
        0.9979992508888245,
        0.9993835687637329,
        0.9999873638153076,
        1.0
      ],
      "min": [
        -0.9999743103981018,
        -0.999832034111023,
        -0.9999858140945435,
        -1.0
      ],
      "type": "VEC4"
    },
    {
      "bufferView": 1,
      "componentType": 5126,
      "count": 11661,
      "max": [
        1.0,
        0.9995840191841125
      ],
      "min": [
        0.0,
        0.0
      ],
      "type": "VEC2"
    },
    {
      "bufferView": 0,
      "componentType": 5125,
      "count": 45813,
      "type": "SCALAR"
    },
    {
      "bufferView": 2,
      "byteOffset": 279864,
      "componentType": 5126,
      "count": 5841,
      "max": [
        50.21086502075195,
        227.84390258789063,
        301.82098388671875
      ],
      "min": [
        -70.41707611083984,
        -158.41896057128906,
        -0.1354369968175888
      ],
      "type": "VEC3"
    },
    {
      "bufferView": 2,
      "byteOffset": 349956,
      "componentType": 5126,
      "count": 5841,
      "max": [
        0.9996945261955261,
        0.9999771118164063,
        0.9999986290931702
      ],
      "min": [
        -0.9999834895133972,
        -0.9986564517021179,
        -0.9999979734420776
      ],
      "type": "VEC3"
    },
    {
      "bufferView": 3,
      "byteOffset": 186576,
      "componentType": 5126,
      "count": 5841,
      "max": [
        0.9996883869171143,
        0.9993768930435181,
        0.9996211528778076,
        1.0
      ],
      "min": [
        -0.9995653629302979,
        -0.9997648596763611,
        -0.9998911619186401,
        -1.0
      ],
      "type": "VEC4"
    },
    {
      "bufferView": 1,
      "byteOffset": 93288,
      "componentType": 5126,
      "count": 5841,
      "max": [
        1.0128220319747925,
        0.988756000995636
      ],
      "min": [
        0.0,
        0.0
      ],
      "type": "VEC2"
    },
    {
      "bufferView": 0,
      "byteOffset": 183252,
      "componentType": 5125,
      "count": 23178,
      "type": "SCALAR"
    }
  ],
  "asset": {
    "extras": {
      "author": "JohnMesplay (https://sketchfab.com/JohnMesplay)",
      "license": "CC-BY-4.0 (http://creativecommons.org/licenses/by/4.0/)",
      "source": "https://sketchfab.com/3d-models/african-wild-dog-0c8d82a38a304d9280b5687dd02b6861",
      "title": "African Wild Dog"
    },
    "generator": "Sketchfab-13.68.0",
    "version": "2.0"
  },
  "bufferViews": [
    {
      "buffer": 0,
      "byteLength": 275964,
      "name": "floatBufferViews",
      "target": 34963
    },
    {
      "buffer": 0,
      "byteLength": 140016,
      "byteOffset": 275964,
      "byteStride": 8,
      "name": "floatBufferViews",
      "target": 34962
    },
    {
      "buffer": 0,
      "byteLength": 420048,
      "byteOffset": 415980,
      "byteStride": 12,
      "name": "floatBufferViews",
      "target": 34962
    },
    {
      "buffer": 0,
      "byteLength": 280032,
      "byteOffset": 836028,
      "byteStride": 16,
      "name": "floatBufferViews",
      "target": 34962
    }
  ],
  "buffers": [
    {
      "byteLength": 1116060,
      "uri": "scene.bin"
    }
  ],
  "images": [
    {
      "uri": "textures/StingrayPBS2SG_baseColor.png"
    },
    {
      "uri": "textures/StingrayPBS2SG_metallicRoughness.png"
    },
    {
      "uri": "textures/StingrayPBS2SG_normal.png"
    },
    {
      "uri": "textures/lambert2SG_baseColor.png"
    },
    {
      "uri": "textures/lambert2SG_metallicRoughness.png"
    },
    {
      "uri": "textures/lambert2SG_emissive.png"
    },
    {
      "uri": "textures/lambert2SG_normal.png"
    }
  ],
  "materials": [
    {
      "alphaMode": "BLEND",
      "doubleSided": true,
      "name": "StingrayPBS2SG",
      "normalTexture": {
        "index": 2
      },
      "occlusionTexture": {
        "index": 1
      },
      "pbrMetallicRoughness": {
        "baseColorTexture": {
          "index": 0
        },
        "metallicRoughnessTexture": {
          "index": 1
        }
      }
    },
    {
      "doubleSided": true,
      "emissiveFactor": [
        1.0,
        1.0,
        1.0
      ],
      "emissiveTexture": {
        "index": 5
      },
      "name": "lambert2SG",
      "normalTexture": {
        "index": 6
      },
      "occlusionTexture": {
        "index": 4
      },
      "pbrMetallicRoughness": {
        "baseColorTexture": {
          "index": 3
        },
        "metallicRoughnessTexture": {
          "index": 4
        }
      }
    }
  ],
  "meshes": [
    {
      "name": "Object_0",
      "primitives": [
        {
          "attributes": {
            "NORMAL": 1,
            "POSITION": 0,
            "TANGENT": 2,
            "TEXCOORD_0": 3
          },
          "indices": 4,
          "material": 1,
          "mode": 4
        }
      ]
    },
    {
      "name": "Object_1",
      "primitives": [
        {
          "attributes": {
            "NORMAL": 6,
            "POSITION": 5,
            "TANGENT": 7,
            "TEXCOORD_0": 8
          },
          "indices": 9,
          "material": 0,
          "mode": 4
        }
      ]
    }
  ],
  "nodes": [
    {
      "children": [
        1
      ],
      "matrix": [
        1.0,
        0.0,
        0.0,
        0.0,
        0.0,
        2.220446049250313e-16,
        -1.0,
        0.0,
        0.0,
        1.0,
        2.220446049250313e-16,
        0.0,
        0.0,
        0.0,
        0.0,
        1.0
      ],
      "name": "Sketchfab_model"
    },
    {
      "children": [
        2,
        3
      ],
      "name": "AfricanWildDog.obj.cleaner.materialmerger.gles"
    },
    {
      "mesh": 0,
      "name": "Object_2"
    },
    {
      "mesh": 1,
      "name": "Object_3"
    }
  ],
  "samplers": [
    {
      "magFilter": 9729,
      "minFilter": 9987,
      "wrapS": 10497,
      "wrapT": 10497
    }
  ],
  "scene": 0,
  "scenes": [
    {
      "name": "Sketchfab_Scene",
      "nodes": [
        0
      ]
    }
  ],
  "textures": [
    {
      "sampler": 0,
      "source": 0
    },
    {
      "sampler": 0,
      "source": 1
    },
    {
      "sampler": 0,
      "source": 2
    },
    {
      "sampler": 0,
      "source": 3
    },
    {
      "sampler": 0,
      "source": 4
    },
    {
      "sampler": 0,
      "source": 5
    },
    {
      "sampler": 0,
      "source": 6
    }
  ]
}
