{
  "accessors": [
    {
      "bufferView": 2,
      "componentType": 5126,
      "count": 1767,
      "max": [
        1.25,
        0.935325026512146,
        0.9801949858665466
      ],
      "min": [
        -1.25,
        -0.935325026512146,
        -0.9801949858665466
      ],
      "type": "VEC3"
    },
    {
      "bufferView": 2,
      "byteOffset": 21204,
      "componentType": 5126,
      "count": 1767,
      "max": [
        1.0,
        1.0,
        1.0
      ],
      "min": [
        -1.0,
        -1.0,
        -1.0
      ],
      "type": "VEC3"
    },
    {
      "bufferView": 1,
      "componentType": 5126,
      "count": 1767,
      "max": [
        4.435324192047119,
        4.187389850616455
      ],
      "min": [
        -2.6569840908050537,
        0.0007919999770820141
      ],
      "type": "VEC2"
    },
    {
      "bufferView": 0,
      "componentType": 5125,
      "count": 5946,
      "type": "SCALAR"
    },
    {
      "bufferView": 2,
      "byteOffset": 42408,
      "componentType": 5126,
      "count": 204,
      "max": [
        1.113651990890503,
        0.6039850115776062,
        0.30569198727607727
      ],
      "min": [
        -0.9465330243110657,
        -0.7984650135040283,
        -0.773826003074646
      ],
      "type": "VEC3"
    },
    {
      "bufferView": 2,
      "byteOffset": 44856,
      "componentType": 5126,
      "count": 204,
      "max": [
        1.0,
        1.0,
        0.029586434364318848
      ],
      "min": [
        -1.0,
        -1.0,
        -1.0
      ],
      "type": "VEC3"
    },
    {
      "bufferView": 1,
      "byteOffset": 14136,
      "componentType": 5126,
      "count": 204,
      "max": [
        16.107881546020508,
        0.9983879923820496
      ],
      "min": [
        -5.076916217803955,
        -2.489089012145996
      ],
      "type": "VEC2"
    },
    {
      "bufferView": 0,
      "byteOffset": 23784,
      "componentType": 5125,
      "count": 732,
      "type": "SCALAR"
    },
    {
      "bufferView": 2,
      "byteOffset": 47304,
      "componentType": 5126,
      "count": 119,
      "max": [
        1.25,
        0.782168984413147,
        0.8323730230331421
      ],
      "min": [
        -0.9465330243110657,
        -0.935325026512146,
        -0.3094500005245209
      ],
      "type": "VEC3"
    },
    {
      "bufferView": 2,
      "byteOffset": 48732,
      "componentType": 5126,
      "count": 119,
      "max": [
        0.9661399722099304,
        0.8049697875976563,
        0.9999998211860657
      ],
      "min": [
        -0.9645265936851501,
        -0.5387301445007324,
        -0.8025929927825928
      ],
      "type": "VEC3"
    },
    {
      "bufferView": 1,
      "byteOffset": 15768,
      "componentType": 5126,
      "count": 119,
      "max": [
        16.049053192138672,
        4.1515069007873535
      ],
      "min": [
        -5.031291961669922,
        1.1973819732666016
      ],
      "type": "VEC2"
    },
    {
      "bufferView": 0,
      "byteOffset": 26712,
      "componentType": 5125,
      "count": 294,
      "type": "SCALAR"
    }
  ],
  "asset": {
    "extras": {
      "author": "MaX3Dd (https://sketchfab.com/MaX3Dd)",
      "license": "CC-BY-4.0 (http://creativecommons.org/licenses/by/4.0/)",
      "source": "https://sketchfab.com/3d-models/farm-house-ee792a21ec6744d9a5488118b1a88750",
      "title": "Farm House"
    },
    "generator": "Sketchfab-12.67.0",
    "version": "2.0"
  },
  "bufferViews": [
    {
      "buffer": 0,
      "byteLength": 27888,
      "name": "floatBufferViews",
      "target": 34963
    },
    {
      "buffer": 0,
      "byteLength": 16720,
      "byteOffset": 27888,
      "byteStride": 8,
      "name": "floatBufferViews",
      "target": 34962
    },
    {
      "buffer": 0,
      "byteLength": 50160,
      "byteOffset": 44608,
      "byteStride": 12,
      "name": "floatBufferViews",
      "target": 34962
    }
  ],
  "buffers": [
    {
      "byteLength": 94768,
      "uri": "scene.bin"
    }
  ],
  "images": [
    {
      "uri": "textures/Farm_house_D_baseColor.jpeg"
    },
    {
      "uri": "textures/House_Side_D_baseColor.jpeg"
    },
    {
      "uri": "textures/Roof_D_baseColor.jpeg"
    }
  ],
  "materials": [
    {
      "doubleSided": true,
      "name": "Farm_house_D",
      "pbrMetallicRoughness": {
        "baseColorTexture": {
          "index": 0
        },
        "metallicFactor": 0.0,
        "roughnessFactor": 0.8932507260164984
      }
    },
    {
      "doubleSided": true,
      "name": "House_Side_D",
      "pbrMetallicRoughness": {
        "baseColorTexture": {
          "index": 1
        },
        "metallicFactor": 0.0,
        "roughnessFactor": 0.8932507260164984
      }
    },
    {
      "doubleSided": true,
      "name": "Roof_D",
      "pbrMetallicRoughness": {
        "baseColorTexture": {
          "index": 2
        },
        "metallicFactor": 0.0,
        "roughnessFactor": 0.8932507260164984
      }
    }
  ],
  "meshes": [
    {
      "name": "house_Farm_house_D_0",
      "primitives": [
        {
          "attributes": {
            "NORMAL": 1,
            "POSITION": 0,
            "TEXCOORD_0": 2
          },
          "indices": 3,
          "material": 0,
          "mode": 4
        }
      ]
    },
    {
      "name": "house_House_Side_D_0",
      "primitives": [
        {
          "attributes": {
            "NORMAL": 5,
            "POSITION": 4,
            "TEXCOORD_0": 6
          },
          "indices": 7,
          "material": 1,
          "mode": 4
        }
      ]
    },
    {
      "name": "house_Roof_D_0",
      "primitives": [
        {
          "attributes": {
            "NORMAL": 9,
            "POSITION": 8,
            "TEXCOORD_0": 10
          },
          "indices": 11,
          "material": 2,
          "mode": 4
        }
      ]
    }
  ],
  "nodes": [
    {
      "children": [
        1
      ],
      "matrix": [
        1.0,
        0.0,
        0.0,
        0.0,
        0.0,
        2.220446049250313e-16,
        -1.0,
        0.0,
        0.0,
        1.0,
        2.220446049250313e-16,
        0.0,
        0.0,
        0.0,
        0.0,
        1.0
      ],
      "name": "Sketchfab_model"
    },
    {
      "children": [
        2
      ],
      "matrix": [
        1.0,
        0.0,
        0.0,
        0.0,
        0.0,
        0.0,
        1.0,
        0.0,
        0.0,
        -1.0,
        0.0,
        0.0,
        0.0,
        0.0,
        0.0,
        1.0
      ],
      "name": "Farm_house.FBX"
    },
    {
      "children": [
        3
      ],
      "name": "RootNode"
    },
    {
      "children": [
        4,
        5,
        6
      ],
      "matrix": [
        49.78626251220703,
        0.0,
        0.0,
        0.0,
        0.0,
        1.1054770990216907e-14,
        -49.78626251220703,
        0.0,
        0.0,
        49.78626251220703,
        1.1054770990216907e-14,
        0.0,
        0.0,
        0.0,
        0.0,
        1.0
      ],
      "name": "house"
    },
    {
      "mesh": 0,
      "name": "house_Farm_house_D_0"
    },
    {
      "mesh": 1,
      "name": "house_House_Side_D_0"
    },
    {
      "mesh": 2,
      "name": "house_Roof_D_0"
    }
  ],
  "samplers": [
    {
      "magFilter": 9729,
      "minFilter": 9987,
      "wrapS": 10497,
      "wrapT": 10497
    }
  ],
  "scene": 0,
  "scenes": [
    {
      "name": "Sketchfab_Scene",
      "nodes": [
        0
      ]
    }
  ],
  "textures": [
    {
      "sampler": 0,
      "source": 0
    },
    {
      "sampler": 0,
      "source": 1
    },
    {
      "sampler": 0,
      "source": 2
    }
  ]
}
